<?xml version="1.0" standalone="no"?>
<!DOCTYPE svg PUBLIC "-//W3C//DTD SVG 20010904//EN"
 "http://www.w3.org/TR/2001/REC-SVG-20010904/DTD/svg10.dtd">
<svg version="1.0" xmlns="http://www.w3.org/2000/svg"
 width="800.000000pt" height="600.000000pt" viewBox="0 0 800.000000 600.000000"
 preserveAspectRatio="xMidYMid meet">

<g transform="translate(0.000000,600.000000) scale(0.100000,-0.100000)"
fill="#000000" stroke="none">
<path d="M173 5872 c-146 -153 -173 -185 -173 -206 0 -23 16 -20 34 7 23 31
277 287 299 298 26 14 21 29 -10 28 -22 0 -53 -27 -150 -127z"/>
<path d="M405 5990 c-3 -6 1 -7 10 -4 9 4 26 2 38 -4 12 -6 34 -13 50 -16 17
-4 27 -13 27 -24 0 -10 6 -24 12 -30 9 -9 10 -15 2 -20 -7 -4 -8 -15 -3 -27 7
-19 8 -18 8 3 1 21 3 22 16 8 8 -8 15 -29 15 -47 0 -27 2 -30 15 -19 16 14 20
3 6 -19 -5 -7 -14 -10 -20 -7 -7 5 -11 -1 -11 -14 0 -12 -4 -19 -9 -16 -5 3
-11 0 -14 -8 -8 -21 20 -28 28 -8 6 15 8 14 15 -5 9 -23 -8 -83 -23 -83 -4 0
-6 -4 -3 -9 4 -5 3 -17 -1 -28 -6 -15 -9 -13 -14 12 -7 29 -7 29 -14 7 -5 -16
-13 -21 -26 -17 -23 8 -23 6 -3 -33 19 -39 28 -41 21 -6 -3 17 -1 22 6 15 5
-5 7 -22 3 -36 -6 -25 -8 -26 -25 -11 -22 20 -31 20 -31 1 0 -8 4 -15 10 -15
18 0 21 -45 5 -85 -8 -22 -13 -30 -11 -17 2 12 0 20 -5 16 -5 -3 -9 -13 -9
-22 -1 -16 -2 -16 -14 1 -19 24 -29 21 -22 -7 7 -28 -12 -46 -25 -25 -5 9 -9
-16 -10 -66 -1 -44 -3 -72 -6 -62 -2 9 -8 17 -13 17 -11 0 -17 -21 -25 -91
-10 -95 -24 -125 -21 -49 3 71 -1 93 -15 84 -5 -3 -9 -28 -9 -56 0 -65 -19
-128 -38 -128 -12 0 -12 -4 3 -20 22 -24 15 -36 -13 -21 -18 10 -19 7 -19 -54
0 -36 -2 -68 -6 -72 -4 -4 -23 -7 -42 -6 l-35 1 0 -60 c0 -51 -3 -61 -20 -65
-22 -6 -26 -19 -8 -25 9 -3 9 -6 0 -12 -7 -4 -12 -2 -12 3 0 19 -28 12 -35 -9
-6 -20 -6 -20 -36 1 -38 27 -37 17 3 -26 22 -25 37 -34 52 -30 12 3 15 2 9 -1
-7 -3 -13 -18 -13 -32 l-1 -27 -29 33 c-16 17 -33 32 -37 32 -13 0 -33 -52
-33 -83 0 -26 2 -28 16 -16 14 11 15 10 12 -11 -2 -14 -9 -24 -16 -23 -8 2
-12 -10 -11 -35 1 -23 3 -28 6 -14 2 12 9 22 15 22 5 0 18 10 29 23 16 19 20
20 29 7 5 -8 10 -22 10 -30 0 -13 -1 -13 -10 0 -6 10 -10 11 -10 3 0 -7 -6
-13 -13 -13 -8 0 -19 -11 -25 -25 -11 -23 -10 -25 7 -16 16 9 17 7 13 -14 -5
-29 5 -32 25 -7 13 15 13 15 4 -5 -11 -22 2 -43 14 -24 7 12 45 -18 45 -35 0
-7 -8 -15 -17 -18 -12 -5 -14 -9 -5 -18 14 -14 16 -38 3 -38 -5 0 -12 16 -15
35 -9 45 -24 53 -36 18 -6 -15 -15 -36 -21 -47 -8 -13 -8 -21 1 -30 8 -8 14
-7 21 7 13 23 25 22 32 -3 3 -12 14 -20 27 -20 12 0 18 -4 15 -10 -4 -6 -11
-8 -16 -5 -5 4 -9 0 -9 -8 0 -8 -7 -20 -15 -27 -12 -10 -16 -9 -21 4 -3 9 -1
22 4 29 6 7 7 19 3 26 -6 9 -10 5 -15 -13 -7 -28 2 -78 13 -72 4 3 5 -11 3
-29 -4 -29 0 -36 22 -46 29 -13 36 -49 10 -49 -11 0 -15 6 -11 20 4 15 0 20
-14 20 -10 0 -19 -6 -20 -12 -1 -7 -2 -24 -2 -38 -1 -15 -9 -26 -19 -28 -13
-2 -16 1 -12 12 4 11 1 16 -10 16 -8 0 -18 -10 -20 -22 -13 -65 -15 -88 -6
-88 6 0 10 8 10 18 0 10 7 27 15 38 14 18 14 18 15 -6 0 -48 -11 -72 -31 -67
-18 5 -19 -14 -19 -564 l0 -569 33 0 c17 0 56 3 85 6 l52 7 0 796 c1 847 1
860 51 1026 12 41 26 75 30 75 4 0 30 -13 57 -29 151 -89 364 -157 595 -191
308 -46 568 -9 832 119 305 148 354 171 360 171 3 0 34 14 68 31 101 50 432
183 569 228 217 71 279 82 508 87 l205 5 31 42 c90 120 268 252 375 277 63 15
154 8 200 -15 19 -10 57 -36 86 -57 l52 -40 56 44 c31 24 82 62 113 86 l57 43
150 -5 c247 -8 460 -77 653 -212 35 -24 66 -44 70 -44 27 0 -54 516 -114 728
l-15 52 -706 -2 -706 -3 -32 -123 c-38 -142 -63 -212 -76 -212 -6 0 -22 26
-36 58 -14 31 -36 80 -49 108 l-23 51 25 48 c38 76 39 75 -88 75 -62 0 -108
-4 -102 -8 16 -10 37 -53 30 -60 -3 -3 -6 0 -6 7 0 9 -3 9 -14 -1 -7 -7 -12
-17 -11 -23 11 -35 14 -78 6 -65 -8 11 -12 9 -21 -14 -12 -32 6 -90 24 -78 6
3 1 -8 -10 -24 -11 -16 -25 -40 -32 -54 -16 -34 -35 -63 -49 -75 -6 -5 -16
-36 -23 -67 l-11 -57 -1007 -4 c-893 -3 -1014 -5 -1072 -20 -97 -24 -100 -24
-100 22 0 22 6 44 15 51 8 7 15 19 15 26 0 8 3 14 8 14 4 0 15 21 25 48 32 82
80 152 106 152 4 0 16 9 25 19 10 11 24 17 32 14 8 -3 20 0 28 6 7 6 32 9 55
7 30 -3 44 0 48 10 8 22 22 16 16 -7 -6 -20 -3 -20 49 -15 42 5 58 2 68 -9 13
-15 55 -12 75 6 15 15 35 10 36 -8 0 -11 3 -13 6 -5 2 6 11 12 19 12 9 0 12
-4 9 -10 -4 -6 9 -10 32 -10 28 0 34 3 23 10 -12 8 -9 10 13 10 19 0 26 -4 21
-12 -5 -8 4 -9 32 -5 42 7 87 -1 79 -13 -3 -4 2 -10 10 -14 8 -3 15 -1 15 5 0
7 13 8 33 4 30 -6 31 -5 13 10 -11 8 -15 15 -9 15 7 0 18 -6 25 -14 9 -9 38
-13 88 -13 47 0 75 -3 78 -11 2 -8 8 -8 23 1 15 9 23 9 39 -1 12 -7 20 -8 20
-2 0 16 22 12 35 -7 16 -22 45 -10 45 19 l1 23 19 -23 c14 -18 24 -21 36 -14
9 5 26 7 36 4 11 -3 23 1 28 7 5 10 15 9 43 -2 33 -14 37 -14 53 4 10 11 30
19 51 19 18 0 33 5 33 10 0 6 8 10 18 11 14 0 14 2 -3 9 -19 8 -19 9 2 9 12 1
29 11 38 24 l16 22 -7 -27 c-4 -18 -2 -28 5 -28 6 0 11 9 11 20 0 12 6 20 13
18 22 -4 57 13 57 28 0 8 7 14 15 14 8 0 27 18 41 40 28 42 39 48 47 28 4 -10
6 -10 6 0 1 6 10 12 20 12 10 0 21 7 25 15 4 13 -7 15 -71 15 -64 0 -81 -4
-107 -23 -54 -41 -57 -42 -54 -10 l3 28 -180 1 -180 2 154 -13 c129 -11 157
-16 168 -32 15 -20 10 -55 -14 -91 l-15 -24 -401 5 c-452 5 -567 14 -1132 92
-157 22 -158 23 -152 45 7 27 0 25 -27 -7 l-24 -27 -105 27 c-89 23 -125 27
-240 27 -79 0 -138 -4 -142 -10z m2192 -196 c-3 -3 -12 -4 -19 -1 -8 3 -5 6 6
6 11 1 17 -2 13 -5z m-540 -10 c-3 -3 -12 -4 -19 -1 -8 3 -5 6 6 6 11 1 17 -2
13 -5z m-1440 -26 c-3 -8 -6 -5 -6 6 -1 11 2 17 5 13 3 -3 4 -12 1 -19z m2918
-45 c77 -137 78 -140 64 -189 l-13 -44 -118 0 -117 0 31 68 c17 37 38 85 48
107 36 86 55 125 61 125 3 0 22 -30 44 -67z m-215 -148 c0 -5 -5 -3 -10 5 -5
8 -10 20 -10 25 0 6 5 3 10 -5 5 -8 10 -19 10 -25z m-2857 -225 c-3 -11 -7
-20 -9 -20 -2 0 -4 9 -4 20 0 11 4 20 9 20 5 0 7 -9 4 -20z m-27 -82 c-8 -23
-15 -37 -16 -29 0 18 22 82 28 77 2 -2 -3 -24 -12 -48z m-226 -428 c0 -5 -4
-10 -10 -10 -5 0 -10 5 -10 10 0 6 5 10 10 10 6 0 10 -4 10 -10z m-130 -260
c0 -11 -4 -20 -9 -20 -5 0 -7 9 -4 20 3 11 7 20 9 20 2 0 4 -9 4 -20z m81 -73
c-13 -13 -15 1 -4 30 7 17 8 17 11 -1 2 -10 -1 -23 -7 -29z m-1 -372 c0 -8 -4
-15 -9 -15 -5 0 -14 7 -21 15 -10 13 -9 15 9 15 12 0 21 -6 21 -15z m-33 -131
c-3 -3 -12 -4 -19 -1 -8 3 -5 6 6 6 11 1 17 -2 13 -5z"/>
<path d="M3330 5986 c0 -9 5 -16 10 -16 6 0 10 4 10 9 0 6 -4 13 -10 16 -5 3
-10 -1 -10 -9z"/>
<path d="M5355 5978 c3 -13 9 -45 14 -73 16 -94 66 -306 69 -295 2 6 -8 65
-23 130 -14 66 -24 124 -21 129 3 5 37 18 74 30 38 11 111 38 163 60 l94 40
-188 1 -187 0 5 -22z"/>
<path d="M5957 5962 c60 -48 143 -139 143 -158 0 -8 -7 -14 -15 -14 -8 0 -15
4 -15 9 0 15 -68 75 -107 95 -21 10 -46 23 -56 28 -11 5 -21 8 -23 6 -6 -6
-54 -310 -54 -342 l0 -30 28 26 c34 32 148 109 184 125 14 6 76 19 138 28 94
15 123 16 183 6 165 -27 296 -128 311 -241 11 -80 -53 -507 -109 -720 -66
-256 -118 -576 -130 -805 -14 -265 -29 -335 -77 -369 -37 -26 -52 -19 -92 42
-56 85 -225 431 -269 552 -120 327 -175 650 -179 1054 -1 130 -3 148 -8 91 -4
-38 -8 -135 -9 -215 -1 -80 -8 -282 -16 -450 -14 -300 -18 -526 -9 -503 3 7
12 9 20 6 11 -4 14 6 14 46 0 28 5 51 10 51 6 0 10 -14 10 -32 0 -17 3 -28 8
-24 4 4 12 -9 19 -31 10 -35 12 -36 12 -10 1 46 33 30 47 -23 l12 -45 -2 48
c-1 26 1 47 6 47 8 0 12 -15 9 -37 -3 -21 9 -15 19 10 8 18 9 16 4 -13 -4 -25
-2 -31 5 -21 7 12 16 1 36 -45 15 -32 28 -69 28 -81 1 -11 4 -20 7 -18 4 2 26
-38 50 -88 24 -51 56 -114 72 -140 30 -51 34 -62 18 -52 -5 3 -10 1 -10 -5 0
-7 7 -9 16 -6 10 4 19 -4 29 -27 8 -17 28 -50 45 -72 17 -22 33 -48 36 -57 4
-10 10 -18 14 -18 5 0 11 -13 15 -30 4 -16 10 -30 15 -30 13 0 18 -36 8 -54
-6 -10 -5 -16 2 -16 5 0 10 7 10 15 0 8 5 15 10 15 6 0 10 -5 10 -11 0 -7 9
-19 19 -29 22 -18 46 -15 -491 -62 l-138 -12 0 -68 0 -67 28 4 c15 2 95 9 177
15 83 6 560 42 1062 80 502 39 924 70 938 70 l25 0 0 1320 0 1320 -44 0 -44 0
-6 -47 c-24 -191 -46 -815 -46 -1310 0 -177 -4 -324 -8 -327 -11 -6 -118 264
-136 344 -8 36 -24 134 -36 218 -11 84 -25 164 -30 177 -13 34 -48 54 -131 75
-50 13 -81 28 -100 47 -15 15 -81 134 -146 263 -119 234 -189 416 -201 516
l-5 44 -579 0 -580 0 49 -38z m528 -79 c-2 -7 2 -13 10 -13 10 0 15 10 15 28
0 19 3 23 9 13 5 -8 18 -12 30 -8 12 3 21 1 21 -4 0 -5 -12 -9 -27 -10 l-28
-1 25 -7 c17 -5 31 -3 42 7 15 13 22 11 60 -22 50 -43 81 -45 86 -3 4 30 22
27 22 -4 0 -10 7 -19 15 -19 8 0 15 7 15 16 0 9 6 14 13 11 6 -2 11 -10 9 -17
-2 -11 0 -11 11 -2 8 7 23 9 33 5 17 -6 17 -5 5 10 -7 9 -10 17 -7 17 11 0 42
-33 55 -58 7 -12 16 -20 22 -17 16 11 68 -18 73 -40 3 -12 17 -27 31 -33 19
-9 25 -19 25 -42 0 -16 5 -30 10 -30 6 0 13 -8 17 -17 3 -10 16 -32 28 -48 12
-17 26 -46 30 -65 4 -19 13 -38 19 -42 6 -4 12 -18 13 -30 9 -85 31 -141 34
-86 1 15 4 11 8 -12 3 -19 3 -36 -1 -38 -5 -2 -8 -13 -7 -25 0 -13 3 -16 6 -9
3 8 16 -9 32 -40 15 -30 32 -52 40 -50 8 2 11 -3 8 -13 -4 -9 -1 -15 7 -15 19
0 61 -35 62 -52 0 -7 2 -21 2 -30 1 -11 7 -15 17 -12 10 4 15 0 15 -15 0 -14
6 -21 20 -21 26 0 47 -20 95 -90 28 -40 38 -64 37 -89 -1 -19 5 -45 13 -58 8
-12 15 -35 15 -52 0 -16 6 -31 15 -35 10 -3 15 -19 15 -45 0 -22 5 -43 10 -46
6 -3 10 -24 10 -45 0 -52 8 -70 32 -70 11 0 18 -5 15 -12 -2 -7 -10 -12 -17
-10 -11 3 -11 0 -1 -12 7 -8 10 -24 7 -34 -4 -13 -1 -22 8 -25 9 -4 17 1 20
11 3 9 4 4 2 -11 -2 -15 -1 -25 2 -22 9 9 32 -17 32 -36 0 -10 -11 -26 -25
-35 -14 -9 -25 -24 -25 -33 0 -13 2 -13 9 -2 5 7 14 10 20 7 14 -9 14 -56 0
-56 -5 0 -7 -5 -4 -10 4 -6 15 -8 25 -5 13 4 19 -1 23 -22 3 -15 8 -39 12 -53
5 -19 4 -21 -4 -10 -5 8 -13 11 -17 7 -10 -9 14 -60 24 -53 17 10 12 -71 -4
-85 -14 -12 -13 -16 12 -36 28 -22 28 -23 9 -38 -14 -12 -16 -18 -7 -21 14 -7
16 -62 2 -84 -8 -12 -10 -11 -10 7 0 15 -5 21 -13 17 -19 -7 11 -71 37 -78 10
-2 15 -9 11 -16 -4 -6 -13 -9 -21 -6 -9 3 -16 -4 -20 -19 -3 -13 -15 -32 -26
-41 -16 -16 -20 -16 -28 -4 -5 8 -13 15 -17 16 -40 3 -92 18 -87 25 3 5 -11 9
-30 9 -22 0 -36 -5 -36 -12 0 -9 -3 -9 -9 1 -5 8 -16 11 -25 8 -8 -3 -18 -2
-21 3 -4 6 6 10 22 11 15 0 22 3 15 6 -6 2 -10 9 -6 14 3 5 -4 9 -15 9 -10 0
-21 -5 -23 -11 -2 -5 -24 -12 -48 -14 -25 -1 -35 -1 -22 2 21 4 32 23 13 23
-5 0 -16 3 -25 6 -11 4 -16 1 -16 -10 0 -9 -8 -16 -19 -16 -10 0 -32 -7 -47
-15 -16 -8 -48 -15 -71 -15 -23 0 -45 -5 -48 -11 -5 -7 -13 -5 -24 5 -10 10
-21 12 -27 7 -5 -5 -20 -11 -34 -13 -16 -2 -27 -12 -31 -28 -6 -23 -7 -23 -8
-3 -1 25 -21 42 -21 18 0 -11 -6 -14 -24 -9 -13 3 -27 1 -30 -5 -11 -17 -36
-13 -36 5 0 13 -7 15 -37 9 -21 -4 -45 -12 -53 -20 -19 -16 -65 -24 -81 -15
-6 5 -25 4 -40 0 -17 -5 -31 -5 -35 1 -3 6 -11 5 -21 -2 -12 -10 -16 -10 -23
1 -6 10 -24 12 -74 7 -66 -6 -67 -6 -76 21 -6 15 -15 35 -20 45 -8 13 -7 17 6
17 8 0 12 5 9 10 -4 6 -11 8 -16 5 -5 -4 -9 2 -9 12 0 10 -2 56 -4 102 -2 51
0 78 5 70 9 -15 10 -13 15 46 4 58 12 115 19 150 5 24 4 27 -5 15 -10 -13 -11
-12 -6 3 3 10 6 39 6 64 0 36 3 44 15 39 11 -4 15 1 15 18 0 14 -6 26 -12 29
-10 3 -10 9 0 26 6 11 12 31 13 43 0 22 1 22 9 3 7 -18 9 -18 15 -3 3 9 2 25
-4 37 -14 25 -14 34 -1 26 6 -3 11 -1 11 4 2 17 4 23 22 61 12 28 13 36 2 38
-8 2 -12 17 -11 41 1 32 4 37 20 33 16 -4 18 -1 12 22 -4 16 -1 39 8 59 8 18
17 52 21 77 10 86 17 115 32 132 17 19 28 104 28 210 0 36 3 61 7 55 3 -6 6
12 6 38 -1 28 4 51 10 53 8 2 8 11 1 30 -6 15 -13 63 -15 107 -7 111 -7 115
-17 115 -5 0 -5 10 -2 21 5 14 3 19 -3 15 -6 -3 -18 12 -28 34 -12 27 -23 39
-32 35 -10 -3 -12 0 -8 10 3 9 0 15 -9 15 -8 0 -15 4 -15 10 0 5 -7 7 -15 4
-9 -4 -15 0 -15 9 0 8 -12 18 -26 21 -17 5 -24 12 -20 21 3 9 -1 16 -12 17 -9
0 -22 2 -29 2 -6 1 -15 5 -19 9 -4 4 -16 7 -26 7 -10 0 -18 7 -18 15 0 8 -4
15 -10 15 -5 0 -10 11 -10 25 0 14 -6 25 -12 25 -7 0 -5 5 5 11 9 5 17 19 17
30 0 16 5 19 20 14 14 -5 20 -2 20 9 0 14 3 14 20 4 11 -7 18 -19 15 -25z
m587 -195 c-8 -8 -9 -4 -5 13 4 13 8 18 11 10 2 -7 -1 -18 -6 -23z m-375 -560
c-3 -8 -6 -5 -6 6 -1 11 2 17 5 13 3 -3 4 -12 1 -19z m-220 -1130 c-3 -8 -6
-5 -6 6 -1 11 2 17 5 13 3 -3 4 -12 1 -19z m968 -258 c3 -6 -4 -10 -17 -10
-18 0 -20 2 -8 10 19 12 18 12 25 0z m230 -70 c3 -6 -1 -7 -9 -4 -18 7 -21 14
-7 14 6 0 13 -4 16 -10z m-1038 -6 c-3 -3 -12 -4 -19 -1 -8 3 -5 6 6 6 11 1
17 -2 13 -5z m93 -14 c-8 -5 -19 -10 -25 -10 -5 0 -3 5 5 10 8 5 20 10 25 10
6 0 3 -5 -5 -10z m472 -114 c5 -42 8 -82 5 -90 -3 -7 -21 -13 -41 -14 l-36 -1
0 57 c0 31 -3 74 -6 94 -6 34 -5 37 22 40 16 2 33 1 37 -3 5 -4 13 -41 19 -83z
m-774 9 c4 -4 -5 -5 -20 -3 -27 5 -40 -6 -16 -14 7 -3 8 -10 3 -17 -6 -11 -12
-8 -26 10 -10 13 -19 27 -19 31 0 9 69 2 78 -7z m152 -9 c0 -3 -4 -8 -10 -11
-5 -3 -10 -1 -10 4 0 6 5 11 10 11 6 0 10 -2 10 -4z m-36 -25 c7 -11 -14 -20
-31 -13 -7 2 -10 8 -7 13 7 12 31 12 38 0z m159 2 c-7 -2 -19 -2 -25 0 -7 3
-2 5 12 5 14 0 19 -2 13 -5z m-273 -28 c0 -8 7 -18 16 -23 9 -5 17 -20 18 -33
1 -22 5 -24 44 -21 28 2 41 -1 37 -8 -3 -5 -24 -10 -45 -10 -29 0 -42 5 -50
19 -7 14 -6 21 3 24 7 4 6 6 -4 6 -20 1 -52 47 -44 61 8 13 25 3 25 -15z m25
5 c3 -5 1 -10 -4 -10 -6 0 -11 5 -11 10 0 6 2 10 4 10 3 0 8 -4 11 -10z m305
-65 c0 -8 -9 -15 -20 -15 -17 0 -19 2 -8 15 17 19 28 19 28 0z m-110 -5 c-12
-8 -12 -10 -1 -10 8 0 12 -2 9 -5 -3 -3 -13 -3 -22 1 -19 7 -11 24 12 24 15 0
15 -2 2 -10z"/>
<path d="M6595 5870 c3 -5 8 -10 11 -10 2 0 4 5 4 10 0 6 -5 10 -11 10 -5 0
-7 -4 -4 -10z"/>
<path d="M7580 4550 c0 -5 5 -10 10 -10 6 0 10 5 10 10 0 6 -4 10 -10 10 -5 0
-10 -4 -10 -10z"/>
<path d="M7285 5968 c-15 -64 -6 -181 19 -263 47 -154 68 -190 155 -258 31
-25 81 -70 111 -101 73 -74 83 -73 74 7 -7 64 -16 91 -59 166 -17 30 -25 59
-25 92 0 56 23 89 108 151 l54 40 -5 52 c-4 36 -2 57 8 70 8 11 15 32 15 48 0
27 -2 28 -50 28 -45 0 -50 -2 -50 -22 0 -27 -10 -43 -30 -51 -10 -3 -6 -6 10
-7 22 -1 23 -2 5 -9 -13 -5 -20 -18 -21 -41 -1 -22 1 -28 7 -19 11 18 10 0 -1
-26 -5 -11 -9 -14 -9 -7 -1 16 -41 -7 -41 -24 0 -6 -10 -19 -22 -28 -13 -9
-17 -15 -9 -13 7 1 16 -4 18 -11 3 -7 1 -12 -4 -11 -21 4 -31 -3 -36 -22 -4
-14 -11 -20 -21 -16 -8 3 -30 1 -49 -5 -30 -9 -37 -8 -57 12 -19 19 -22 30
-18 71 3 26 1 46 -3 44 -4 -3 -5 21 -3 52 7 81 12 99 30 117 14 15 10 16 -39
16 -54 0 -56 -1 -62 -32z m355 -78 c0 -5 -4 -10 -10 -10 -5 0 -10 5 -10 10 0
6 5 10 10 10 6 0 10 -4 10 -10z m-153 -232 c-3 -8 -6 -5 -6 6 -1 11 2 17 5 13
3 -3 4 -12 1 -19z"/>
<path d="M577 5713 c-4 -3 -7 -11 -7 -17 0 -6 5 -5 12 2 6 6 9 14 7 17 -3 3
-9 2 -12 -2z"/>
<path d="M545 5679 c-4 -6 -5 -12 -2 -15 2 -3 7 2 10 11 7 17 1 20 -8 4z"/>
<path d="M5441 5564 c0 -11 3 -14 6 -6 3 7 2 16 -1 19 -3 4 -6 -2 -5 -13z"/>
<path d="M5822 5525 c0 -16 2 -22 5 -12 2 9 2 23 0 30 -3 6 -5 -1 -5 -18z"/>
<path d="M5451 5494 c0 -11 3 -14 6 -6 3 7 2 16 -1 19 -3 4 -6 -2 -5 -13z"/>
<path d="M5461 5425 c0 -11 4 -27 9 -35 9 -13 10 -13 9 0 0 8 -4 24 -9 35 l-9
20 0 -20z"/>
<path d="M5482 5300 c0 -19 2 -27 5 -17 2 9 2 25 0 35 -3 9 -5 1 -5 -18z"/>
<path d="M5493 5185 c-1 -33 3 -89 7 -125 l7 -65 1 75 c0 41 -3 98 -8 125 l-7
50 0 -60z"/>
<path d="M207 4973 c-4 -3 -7 -16 -6 -27 0 -19 1 -19 10 3 10 24 8 36 -4 24z"/>
<path d="M1 4674 c0 -11 3 -14 6 -6 3 7 2 16 -1 19 -3 4 -6 -2 -5 -13z"/>
<path d="M0 4400 c0 -11 2 -20 4 -20 2 0 6 9 9 20 3 11 1 20 -4 20 -5 0 -9 -9
-9 -20z"/>
<path d="M25 4360 c-7 -12 2 -30 16 -30 5 0 9 9 9 20 0 21 -15 27 -25 10z"/>
<path d="M10 4200 c0 -5 5 -10 10 -10 6 0 10 5 10 10 0 6 -4 10 -10 10 -5 0
-10 -4 -10 -10z"/>
<path d="M45 4120 c-3 -5 -2 -10 4 -10 5 0 13 5 16 10 3 6 2 10 -4 10 -5 0
-13 -4 -16 -10z"/>
<path d="M5970 4110 c0 -11 0 -23 0 -27 0 -13 23 -9 26 5 1 7 0 8 -3 2 -9 -20
-20 -10 -15 15 2 14 2 25 -2 25 -3 0 -6 -9 -6 -20z"/>
<path d="M2845 4007 c-136 -51 -566 -327 -935 -601 -180 -134 -216 -168 -334
-324 -56 -74 -119 -157 -140 -185 -83 -109 -279 -339 -376 -440 -134 -141
-431 -406 -684 -612 -55 -44 -122 -100 -150 -124 l-51 -45 -3 194 -2 194 52
45 c183 157 309 303 381 439 38 73 74 188 62 200 -2 2 -16 -3 -32 -11 -103
-54 -314 -107 -424 -107 -37 0 -39 2 -39 29 l0 30 -72 -5 c-40 -3 -79 -7 -85
-10 -10 -3 -13 -253 -13 -1209 0 -663 4 -1205 8 -1205 5 0 38 15 73 34 35 19
107 50 159 70 52 20 106 41 120 47 17 6 39 36 68 93 141 269 389 443 758 531
l101 24 104 -23 c57 -13 167 -41 244 -61 253 -68 261 -69 595 -69 168 -1 385
3 483 8 l177 8 0 73 0 73 93 84 c127 116 202 172 272 205 53 25 72 28 159 28
l100 1 22 87 c13 48 26 117 29 154 6 63 4 76 -36 183 -43 118 -92 280 -105
345 -3 20 -10 33 -14 28 -14 -15 -99 -236 -125 -328 -14 -49 -34 -136 -43
-192 -10 -56 -20 -105 -23 -108 -4 -3 -16 18 -28 46 -42 97 -53 173 -57 394
l-3 210 -50 40 c-27 22 -64 58 -81 80 l-32 40 9 85 c9 91 9 111 -2 527 -7 259
-8 272 -25 263 -37 -20 -69 -12 -90 22 -45 74 -43 87 98 746 4 19 0 22 -24 21
-16 0 -56 -10 -89 -22z"/>
<path d="M6338 3393 c7 -3 16 -2 19 1 4 3 -2 6 -13 5 -11 0 -14 -3 -6 -6z"/>
<path d="M7625 3239 c-337 -26 -397 -34 -360 -44 64 -17 68 -28 61 -151 -17
-292 -137 -659 -306 -934 -86 -141 -221 -313 -234 -299 -3 2 -1 34 4 69 5 36
10 89 10 119 0 46 5 61 41 110 204 283 205 284 239 409 18 64 43 164 55 222
13 58 33 139 44 180 11 41 20 86 20 100 -1 14 -27 -83 -60 -215 -106 -434 -71
-365 -435 -845 -202 -266 -381 -485 -403 -495 -16 -6 -24 -17 91 125 47 58
131 168 187 245 57 77 111 151 121 165 92 125 111 158 120 214 7 43 24 81 64
146 69 111 101 181 137 300 36 118 79 343 79 415 0 82 12 105 55 105 19 0 35
5 35 10 0 16 -16 15 -540 -25 -107 -8 -316 -24 -465 -35 -439 -34 -415 -31
-415 -50 0 -20 19 -30 60 -30 40 0 70 -41 70 -94 0 -35 -6 -47 -37 -77 -21
-20 -50 -43 -65 -52 l-28 -17 0 -624 0 -624 41 9 c43 10 109 3 109 -12 0 -9
-9 -11 -95 -26 l-50 -8 -5 -146 -5 -146 -75 -68 c-41 -37 -125 -119 -187 -181
-119 -119 -209 -182 -311 -216 -31 -10 -129 -28 -217 -39 -88 -11 -161 -22
-163 -24 -2 -1 19 -34 46 -71 28 -38 77 -118 111 -177 34 -60 83 -134 109
-165 151 -178 155 -184 135 -203 -10 -10 -47 -34 -83 -54 l-65 -35 240 1 240
0 26 42 c15 23 45 79 68 125 23 45 45 82 50 82 11 0 44 50 44 67 0 7 2 11 5 9
8 -8 108 133 104 147 -1 4 3 7 8 7 6 0 10 7 10 16 0 8 5 12 10 9 6 -3 10 3 10
14 0 12 5 21 11 21 5 0 7 5 4 10 -3 6 0 10 9 10 8 0 20 16 26 36 7 19 18 38
26 41 8 3 12 8 9 13 -2 4 4 16 15 28 26 27 18 99 -18 167 -79 150 -82 161 -82
249 0 93 23 237 44 276 12 23 26 94 57 288 7 47 15 72 22 69 15 -5 15 -71 -2
-272 -8 -88 -13 -215 -13 -282 l1 -123 48 -61 c103 -129 114 -145 123 -167 7
-16 6 -33 -4 -56 -25 -59 -164 -246 -356 -475 -52 -63 -125 -153 -162 -200
l-67 -86 512 -3 c282 -1 517 0 523 2 6 2 14 39 18 81 29 325 253 1150 451
1665 59 153 144 409 162 484 8 39 31 104 51 145 52 114 99 249 118 345 9 47
20 86 25 86 4 0 14 -21 23 -47 72 -224 93 -465 61 -709 -9 -64 -72 -396 -140
-738 -138 -689 -180 -932 -209 -1203 l-12 -113 423 0 423 0 0 1630 0 1630 -72
-1 c-40 -1 -176 -10 -303 -20z m-964 -113 l-24 -13 21 -12 c28 -15 29 -41 2
-41 -31 0 -24 -15 15 -30 19 -7 32 -18 28 -23 -3 -5 -10 -4 -16 2 -16 16 -34
14 -41 -5 -3 -8 -2 -12 4 -9 14 9 52 -4 45 -15 -3 -5 -13 -6 -22 -3 -12 5 -14
3 -8 -7 5 -8 3 -11 -6 -8 -12 4 -59 -38 -59 -53 0 -17 17 -15 67 7 33 15 53
20 51 12 -3 -7 -18 -16 -36 -20 -31 -8 -34 -18 -17 -59 8 -20 -14 -38 -52 -43
-26 -3 -29 0 -25 19 6 36 -15 38 -50 6 -46 -41 -127 -99 -164 -116 -17 -7 -36
-21 -44 -29 -7 -9 -16 -16 -20 -16 -10 0 -18 39 -21 95 -2 22 -6 45 -9 50 -4
6 -10 23 -14 40 -4 16 -19 40 -32 54 -26 26 -31 78 -6 73 6 -1 12 2 12 8 0 12
-10 13 -30 0 -15 -9 -40 4 -40 22 0 6 7 5 15 -2 13 -10 15 -9 15 9 0 12 6 21
14 21 8 0 18 5 21 10 4 6 -7 10 -24 10 -20 0 -31 -5 -31 -14 0 -20 -30 -29
-36 -11 -9 23 15 45 48 45 17 0 27 4 23 10 -4 6 9 10 32 10 21 0 54 4 73 9 19
6 101 12 183 14 81 2 150 7 154 10 3 4 11 7 17 7 6 -1 0 -7 -13 -14z m750
-189 c0 -54 -3 -102 -6 -107 -3 -4 -12 -44 -20 -88 -32 -168 -126 -398 -214
-527 -23 -33 -62 -91 -87 -129 -31 -46 -48 -65 -53 -57 -6 10 -10 9 -14 -3 -3
-8 -2 -16 4 -18 5 -2 -4 -19 -20 -38 l-29 -35 5 30 c7 36 62 117 75 109 5 -3
8 0 6 8 -4 20 64 158 75 151 6 -3 7 -1 3 5 -4 6 2 28 12 49 38 74 123 314 152
428 30 121 45 209 56 340 l6 80 25 -49 c22 -44 25 -62 24 -149z m-1281 141 c0
-12 -1 -19 -3 -17 -1 2 -9 12 -16 22 -12 14 -11 17 3 17 10 0 16 -8 16 -22z
m605 -78 c-3 -5 -12 -10 -18 -10 -7 0 -6 4 3 10 19 12 23 12 15 0z m-35 -116
c0 -8 -4 -12 -10 -9 -5 3 -10 10 -10 16 0 5 5 9 10 9 6 0 10 -7 10 -16z m-13
-218 c-118 -237 -231 -411 -391 -601 -82 -98 -279 -295 -294 -295 -8 0 28 45
79 100 98 106 132 145 240 282 91 114 169 232 243 362 35 61 94 166 132 234
39 70 70 115 72 106 2 -9 -34 -94 -81 -188z m-63 112 c-4 -6 -9 -6 -14 2 -4 7
-10 -1 -14 -21 -3 -19 -20 -46 -37 -61 -33 -31 -60 -38 -38 -11 12 15 12 16
-5 10 -17 -7 -18 -6 -4 15 9 13 22 23 29 24 30 2 34 5 20 13 -10 7 -11 13 -2
27 10 18 10 18 11 -1 1 -15 3 -16 7 -5 3 8 11 18 16 22 14 9 38 -2 31 -14z
m-199 -98 c-32 -32 -51 -46 -56 -38 -5 7 13 26 44 49 29 21 54 38 57 39 2 0
-18 -22 -45 -50z m65 -17 c-8 -3 -21 -10 -28 -16 -9 -7 -11 -6 -6 7 3 9 16 16
28 15 14 0 16 -2 6 -6z m-145 -59 c-15 -11 -20 -11 -27 -1 -5 8 -8 5 -8 -10 0
-26 -19 -78 -25 -71 -3 3 0 20 6 39 6 19 12 39 14 45 2 6 16 12 31 12 26 0 27
-1 9 -14z m175 6 c0 -5 -5 -10 -11 -10 -5 0 -7 5 -4 10 3 6 8 10 11 10 2 0 4
-4 4 -10z m-30 -10 c0 -5 -2 -10 -4 -10 -3 0 -8 5 -11 10 -3 6 -1 10 4 10 6 0
11 -4 11 -10z m-106 -45 c-7 -17 -20 -20 -28 -6 -4 5 0 12 6 14 23 9 28 7 22
-8z m-549 -505 c1 -13 -5 -20 -16 -20 -15 0 -15 3 -6 24 13 27 20 26 22 -4z
m-35 -94 c0 -3 -4 -8 -10 -11 -5 -3 -10 -1 -10 4 0 6 5 11 10 11 6 0 10 -2 10
-4z m1130 -93 c0 -3 -7 -3 -15 1 -9 3 -15 0 -15 -9 0 -23 -2 -29 -22 -49 -10
-11 -18 -26 -18 -33 0 -7 -11 -15 -25 -19 -20 -5 -24 -11 -20 -28 5 -17 4 -18
-4 -5 -11 17 -4 59 9 59 5 0 11 -6 14 -12 4 -7 4 -3 2 10 -2 12 4 32 14 45
l19 22 -5 -25 c-5 -20 -3 -22 5 -10 6 8 11 22 11 31 0 21 20 39 36 32 8 -3 14
-7 14 -10z m-139 -120 c-8 -15 -10 -15 -11 -2 0 17 10 32 18 25 2 -3 -1 -13
-7 -23z m-523 -320 c-13 -16 -56 -64 -93 -107 -85 -99 -154 -170 -159 -165 -3
2 26 36 62 75 37 39 98 105 135 147 38 42 71 77 75 77 3 0 -6 -12 -20 -27z
m-483 -223 c3 -5 1 -10 -4 -10 -6 0 -11 5 -11 10 0 6 2 10 4 10 3 0 8 -4 11
-10z m65 -128 c0 -70 -2 -64 84 -228 39 -75 37 -113 -10 -181 -82 -121 -217
-304 -220 -300 -2 2 9 84 25 183 16 98 37 238 45 309 9 72 23 149 31 172 8 23
18 60 21 82 10 61 24 39 24 -37z"/>
<path d="M6283 3083 c9 -2 23 -2 30 0 6 3 -1 5 -18 5 -16 0 -22 -2 -12 -5z"/>
<path d="M6613 2864 c-10 -21 -10 -25 2 -20 7 2 16 0 18 -7 3 -9 8 -9 18 1 11
10 10 12 -4 12 -20 0 -22 11 -5 28 9 9 9 12 -2 12 -8 0 -20 -12 -27 -26z"/>
<path d="M6310 2760 c0 -5 4 -10 9 -10 6 0 13 5 16 10 3 6 -1 10 -9 10 -9 0
-16 -4 -16 -10z"/>
<path d="M6396 2758 c3 -5 10 -6 15 -3 13 9 11 12 -6 12 -8 0 -12 -4 -9 -9z"/>
<path d="M6300 2718 c0 -9 5 -20 10 -23 13 -8 13 5 0 25 -8 13 -10 13 -10 -2z"/>
<path d="M6995 1989 c-4 -6 -5 -12 -2 -15 2 -3 7 2 10 11 7 17 1 20 -8 4z"/>
<path d="M6530 2720 c0 -5 5 -10 11 -10 5 0 7 5 4 10 -3 6 -8 10 -11 10 -2 0
-4 -4 -4 -10z"/>
<path d="M3890 3185 c14 -8 32 -14 41 -15 8 0 23 -6 33 -13 16 -11 14 -18 -22
-97 -52 -112 -62 -159 -61 -277 l1 -98 14 67 c20 102 50 163 106 213 50 45
114 73 142 62 12 -5 9 -21 -20 -102 -66 -185 -67 -307 -2 -381 61 -69 210 -84
303 -30 80 47 122 124 154 283 11 52 22 97 24 100 11 10 66 -29 101 -72 21
-25 40 -44 42 -42 17 17 -99 226 -149 269 -108 91 -206 127 -367 133 -337 14
-366 14 -340 0z"/>
<path d="M7203 3123 c-1 -89 12 -79 20 15 3 43 2 62 -6 62 -8 0 -13 -27 -14
-77z"/>
<path d="M5091 1618 c-21 -70 -59 -131 -102 -163 -52 -38 -48 -59 11 -63 87
-5 140 54 140 158 0 42 -21 110 -34 110 -1 0 -8 -19 -15 -42z"/>
<path d="M340 376 c-93 -32 -216 -85 -280 -121 l-55 -31 -3 -112 -3 -112 443
0 443 0 -60 33 c-133 72 -282 197 -386 323 l-34 42 -65 -22z"/>
</g>
</svg>
